<svg width="244" height="94" viewBox="0 0 244 94" fill="none" xmlns="http://www.w3.org/2000/svg">
<path d="M176.622 26.8234C174.585 26.8234 172.84 26.8234 170.948 26.8234C170.948 20.8307 170.948 14.9111 170.948 8.99148C174.513 8.04142 176.259 8.47991 176.913 10.38C180.914 7.09136 184.479 7.3106 187.461 11.1839C189.28 8.99148 191.535 7.74909 194.445 8.26066C197.282 8.77223 199.173 10.1608 199.318 13.0841C199.609 17.542 199.391 22.0731 199.391 26.6772C197.718 26.6772 195.972 26.6772 193.79 26.6772C193.79 23.1693 193.863 19.6614 193.79 16.0804C193.717 13.7418 192.408 12.6456 190.371 13.0841C188.771 13.4495 188.261 14.6919 188.189 16.1535C188.116 18.8575 188.116 21.5615 188.116 24.2656C188.116 25.0695 188.116 25.8003 188.116 26.6772C186.152 26.6772 184.406 26.6772 182.296 26.6772C182.296 24.2656 182.296 21.7808 182.296 19.296C182.296 18.1998 182.296 17.1766 182.296 16.0804C182.224 14.4726 181.787 13.0841 179.823 13.011C177.932 12.9379 176.913 13.8149 176.695 16.0073C176.55 17.9805 176.622 20.0268 176.55 22C176.622 23.6809 176.622 25.1425 176.622 26.8234Z" fill="white"/>
<path d="M5.965 19.8076C5.965 22.1462 5.965 24.3387 5.965 26.7504C3.92817 26.7504 2.03683 26.7504 0 26.7504C0 17.9806 0 9.35695 0 0.733314C4.58287 0.733314 9.09299 0.367905 13.4576 0.806396C17.604 1.24489 20.441 5.26438 20.5138 9.79544C20.5865 14.3265 17.8223 18.2729 13.6031 19.1499C11.2026 19.6615 8.65653 19.6615 5.965 19.8076ZM6.18324 5.48362C6.18324 8.69922 6.18324 11.6225 6.18324 14.6188C8.9475 14.3265 11.93 15.5689 13.6759 12.4995C14.6943 10.7455 14.6215 8.84538 13.4576 7.23758C11.5663 4.53356 8.72927 5.70287 6.18324 5.48362Z" fill="white"/>
<path d="M91.7301 8.84543C91.8028 9.43008 91.8756 10.0147 92.0211 10.6725C96.5312 7.45687 100.969 7.60304 103.878 10.8917C106.934 14.3996 106.934 21.1231 103.878 24.6311C100.896 28.0659 96.6767 28.2852 91.8756 24.9965C91.8756 26.6774 91.8756 28.2121 91.8756 29.7468C91.8756 31.2084 91.8756 32.7431 91.8756 34.3509C89.9842 34.3509 88.2384 34.3509 86.347 34.3509C86.347 25.8735 86.347 17.396 86.347 8.84543C88.0929 8.84543 89.8388 8.84543 91.7301 8.84543ZM91.6574 17.8345C91.6574 20.6116 93.476 22.6579 96.022 22.5848C98.4953 22.5848 100.387 20.4654 100.314 17.6883C100.241 14.9843 98.4953 13.0842 96.022 13.0842C93.4032 13.0842 91.5846 15.0574 91.6574 17.8345Z" fill="white"/>
<path d="M30.6252 10.3069C32.5893 9.57612 34.1896 8.62606 35.9355 8.40682C39.8637 7.82216 42.7734 10.0146 43.0644 13.961C43.3554 18.1998 43.1371 22.5116 43.1371 26.8965C41.3185 26.8965 39.5727 26.8965 37.4631 26.8965C37.4631 24.5579 37.4631 22.2923 37.4631 19.9537C37.4631 18.7113 37.3904 17.542 37.3176 16.2996C37.1721 14.3995 36.2992 13.2302 34.2624 13.2302C32.2255 13.2302 30.9889 14.3264 30.8434 16.5189C30.6979 19.5152 30.7707 22.5116 30.7707 25.5079C30.7707 25.9464 30.6979 26.3118 30.6979 26.8234C28.8066 26.8234 27.0607 26.8234 25.1694 26.8234C25.1694 18.1998 25.1694 9.50304 25.1694 0.660156C26.9152 0.660156 28.6611 0.660156 30.6979 0.660156C30.6252 3.87575 30.6252 7.23751 30.6252 10.3069Z" fill="white"/>
<path d="M158.509 10.6725C158.655 10.0147 158.727 9.43009 158.873 8.77235C160.764 8.77235 162.51 8.77235 164.329 8.77235C164.329 14.8381 164.329 20.6847 164.329 26.7504C162.51 26.7504 160.764 26.7504 158.873 26.7504C158.727 26.2389 158.582 25.6542 158.436 25.0696C153.999 28.2852 149.416 28.0659 146.506 24.558C143.378 20.7577 143.669 13.9612 147.088 10.5994C150.216 7.52997 154.654 7.45688 158.509 10.6725ZM150.289 17.7614C150.289 20.6116 151.889 22.5848 154.435 22.6579C156.981 22.731 158.8 20.8308 158.873 17.9806C158.945 15.1305 157.272 13.2303 154.654 13.1573C151.962 13.0842 150.289 14.8381 150.289 17.7614Z" fill="white"/>
<path d="M210.303 19.3692C211.03 22.731 213.94 24.0465 216.631 22.6579C219.323 21.1963 219.614 21.1963 223.178 21.4886C223.033 25.3619 218.741 27.7736 212.994 27.3351C207.393 26.8966 203.974 22.4387 204.629 16.3729C205.211 10.8918 209.794 7.45691 215.613 8.18773C221.578 8.91855 224.488 12.938 223.542 19.2961C221.433 19.2961 219.25 19.2961 217.068 19.2961C214.886 19.3692 212.703 19.3692 210.303 19.3692ZM218.014 15.7151C217.65 13.0842 216.413 11.9149 214.158 11.988C211.83 12.0611 210.594 13.3034 210.521 15.7151C212.922 15.7151 215.395 15.7151 218.014 15.7151Z" fill="white"/>
<path d="M120.609 17.9806C122.501 17.9806 124.392 17.9806 126.138 17.9806C126.647 19.1499 126.938 20.4654 127.666 21.3424C129.121 23.1694 132.467 22.5117 133.194 20.173C133.558 19.0037 133.631 17.6152 133.631 16.3728C133.703 11.184 133.631 5.9952 133.631 0.587158C135.667 0.587158 137.559 0.587158 139.668 0.587158C139.668 6.06828 139.668 11.4032 139.668 16.8113C139.668 18.1998 139.523 19.6615 139.232 21.05C138.068 25.9465 133.703 28.2851 127.811 27.4081C123.228 26.6773 120.246 22.804 120.609 17.9806Z" fill="white"/>
<path d="M243.765 13.8881C241.437 13.4496 239.037 14.9843 237.218 12.4264C236.854 11.9149 235.399 12.1341 234.454 12.2072C234.09 12.2803 233.581 13.3765 233.654 13.4496C234.236 14.1073 234.89 14.765 235.69 15.0574C237.291 15.7151 238.964 16.0074 240.564 16.5921C244.492 18.1999 245.22 23.0233 241.874 25.7273C238.746 28.2852 231.908 27.9928 229.143 25.0696C228.27 24.1926 227.907 22.8771 227.034 21.3424C229.143 21.3424 230.526 21.2693 231.908 21.4155C232.417 21.4886 232.926 21.927 233.363 22.2194C234.017 22.5848 234.599 23.2425 235.327 23.3887C236.491 23.681 237.727 23.6079 238.091 22.1463C238.455 20.6847 237.218 20.3923 236.2 20.1C234.672 19.6615 233.144 19.3692 231.689 18.8576C229.289 18.0537 228.052 16.4459 227.98 14.1804C227.907 11.8418 229.071 9.94166 231.326 8.99159C234.454 7.67612 237.582 7.74921 240.637 9.06468C242.456 9.94166 243.619 11.3302 243.765 13.8881Z" fill="white"/>
<path d="M67.3609 26.8235C65.3968 26.8235 63.651 26.8235 61.7596 26.8235C61.7596 18.0537 61.7596 9.35696 61.7596 0.587158C63.651 0.587158 65.3968 0.587158 67.3609 0.587158C67.3609 9.35696 67.3609 17.9806 67.3609 26.8235Z" fill="white"/>
<path d="M55.0671 26.8964C53.1758 26.8964 51.4299 26.8964 49.6113 26.8964C49.6113 20.8306 49.6113 14.911 49.6113 8.84521C51.4299 8.84521 53.1758 8.84521 55.0671 8.84521C55.0671 14.911 55.0671 20.7575 55.0671 26.8964Z" fill="white"/>
<path d="M79.5091 8.9917C79.5819 9.50327 79.6546 10.0148 79.6546 10.4533C79.6546 15.8614 79.6546 21.2694 79.6546 26.8236C77.7633 26.8236 76.0174 26.8236 73.9078 26.8236C73.9078 23.9004 73.9078 20.9771 73.9078 17.9807C73.9078 15.0575 73.9078 12.1342 73.9078 8.9917C75.7992 8.9917 77.6178 8.9917 79.5091 8.9917Z" fill="white"/>
<path d="M55.9401 3.51036C56.0129 5.41049 54.4125 7.09136 52.4484 7.09136C50.4843 7.16445 48.884 5.55665 48.8112 3.58344C48.8112 1.68332 50.4116 0.00244141 52.3029 0.00244141C54.267 0.00244141 55.8674 1.53716 55.9401 3.51036Z" fill="white"/>
<path d="M76.7449 7.09143C74.7808 7.01835 73.2532 5.41055 73.3259 3.43734C73.3987 1.46414 74.999 -0.0705764 76.9631 0.00250532C78.9272 0.075587 80.4548 1.68338 80.3821 3.65659C80.3093 5.62979 78.6362 7.16451 76.7449 7.09143Z" fill="white"/>
<path d="M42.8132 45.9363C41.9403 46.594 40.9946 47.1787 40.1217 47.9095C32.3381 54.7792 25.3546 62.3797 19.5351 70.9302C18.8077 72.0265 18.153 73.4881 16.4071 72.6111C14.8068 71.7341 14.8795 70.4918 15.6069 68.8109C17.7893 63.6221 19.8261 58.2871 21.9357 53.0252C21.7174 52.8791 21.4265 52.7329 21.2082 52.5137C20.6263 53.0252 19.9716 53.4637 19.4624 54.0484C14.8068 60.0411 10.1512 66.0338 5.64103 72.0265C4.84085 73.1227 4.33164 74.4382 3.6042 75.5344C3.16774 76.1921 2.65853 76.8499 2.07658 77.1422C1.56737 77.3614 0.694441 77.2153 0.185233 76.9229C-0.105743 76.7768 -0.0329942 75.6805 0.257982 75.2421C1.20365 73.5612 2.14932 71.8803 3.31322 70.3456C6.80493 65.8145 10.3694 61.3565 13.9338 56.9716C16.6981 53.5368 19.5351 50.175 22.3721 46.8133C22.8086 46.3017 23.3178 45.7171 23.827 45.644C24.6272 45.4978 25.7184 45.4247 26.3731 45.8632C26.8095 46.1556 27.0278 47.3979 26.8095 48.0557C25.7911 51.4905 24.6272 54.8523 23.536 58.214C23.3906 58.6525 23.3178 59.1641 23.536 59.8218C24.4817 58.9448 25.5001 58.0679 26.3003 57.1178C32.3381 50.175 39.3215 44.3285 46.6686 38.9935C48.1235 37.8973 49.4329 38.2627 50.524 39.2859C51.7607 40.3821 50.5968 41.3322 50.0148 42.2822C47.2506 47.0325 44.1953 51.6367 41.722 56.4601C37.6484 64.4991 33.8657 72.6111 30.2285 80.7963C28.7009 84.2311 27.1732 87.8852 27.9007 91.9047C28.1189 93.074 27.3187 93.4394 26.3003 93.2201C24.8454 92.9278 24.118 91.7585 24.2635 90.37C24.5545 88.3237 24.7727 86.2043 25.5729 84.3773C27.4642 79.8462 29.792 75.5344 31.8288 71.0764C34.4476 65.376 36.9209 59.6026 39.467 53.9022C40.6309 51.3444 41.9403 48.8596 43.1769 46.3017C43.1042 46.2286 42.9587 46.0825 42.8132 45.9363Z" fill="#2ED6FB"/>
<path d="M97.7348 41.9164C93.152 49.6631 88.6418 57.1905 84.2044 64.864C82.0949 68.5181 79.9853 72.3184 78.1667 76.1186C77.512 77.4341 77.6575 79.115 77.4393 80.6497C77.3665 81.1613 77.0028 81.6728 76.7846 82.2575C76.2754 82.0382 75.257 81.819 75.1842 81.5267C74.8932 79.9189 74.675 78.238 74.8205 76.5571C74.966 75.1686 75.6207 73.78 76.0571 72.3915C75.9116 72.3184 75.7662 72.1722 75.6207 72.0991C73.7293 73.6339 71.838 75.1686 69.9466 76.7033C69.7284 76.8494 69.5102 77.0687 69.2919 77.2149C67.9098 78.3111 66.5277 79.6265 64.5636 78.5303C63.1087 77.6533 62.6723 75.0224 63.5452 72.83C65.9457 66.7642 70.0921 62.16 75.5479 58.7983C77.5848 57.5559 79.9126 57.7751 81.8039 59.1637C83.4043 60.4061 84.1317 59.8945 84.9319 58.5059C87.9871 53.2441 91.0424 48.0553 94.0976 42.8665C94.8251 41.3318 95.6253 40.0894 97.7348 41.9164ZM65.1455 74.8762C65.582 75.3147 65.5093 75.2416 65.9457 75.6801C70.8923 72.4645 75.257 68.5912 79.4034 64.4256C80.64 63.1832 80.1308 60.9907 78.4577 60.6253C77.6575 60.4061 76.7846 60.6984 75.8389 61.5023C73.3656 63.5486 70.8923 65.6679 68.9282 68.0796C67.3279 70.0529 66.3822 72.6107 65.1455 74.8762Z" fill="#2ED6FB"/>
<path d="M116.43 75.2417C121.595 71.7338 126.687 68.2989 131.852 64.791C132.143 65.0103 132.361 65.2295 132.652 65.4487C132.216 66.2526 132.07 67.3489 131.415 67.8604C126.76 71.2953 122.104 74.657 117.376 77.9457C115.484 79.2612 114.102 78.3842 114.03 76.0456C114.03 75.3148 114.175 74.657 114.248 73.9262C114.32 73.3416 114.539 72.7569 114.393 71.953C112.429 73.7801 110.538 75.6802 108.501 77.3611C107.701 78.0188 105.809 78.8227 105.518 78.5304C104.646 77.5803 104.136 76.1918 103.773 74.8763C103.627 74.2185 103.991 73.3416 104.282 72.6108C106.391 67.495 109.81 63.3294 114.321 60.1138C116.794 58.3598 118.831 58.3598 120.358 59.8215C121.959 61.2831 122.031 63.841 120.722 66.3257C119.194 69.1759 117.739 72.0992 116.212 74.9494C116.285 75.1686 116.285 75.0955 116.43 75.2417ZM106.319 74.7301C106.828 75.0955 107.555 75.0224 107.992 74.584C111.556 71.003 115.121 67.3489 118.54 63.6948C118.612 63.6217 118.685 63.5486 118.685 63.4025C119.267 62.2332 118.03 60.9177 116.794 61.4293C116.721 61.4293 116.648 61.5023 116.576 61.5754C112.72 63.9871 109.738 67.2758 107.483 71.2222C106.828 72.2453 106.682 73.5608 106.319 74.7301Z" fill="#2ED6FB"/>
<path d="M66.164 65.5952C65.6548 66.3991 65.4366 67.4953 64.7091 68.0069C60.1263 71.3686 55.5434 74.7304 50.8151 77.8729C47.978 79.773 45.5775 78.7499 44.4863 75.6074C43.6862 73.2688 43.6134 70.8571 45.2138 68.8839C47.6143 65.9606 50.3059 63.1104 52.9974 60.4064C54.525 58.9447 56.4163 58.4332 58.4532 59.6025C59.9808 60.4795 60.49 61.7218 60.2718 63.4027C60.0535 65.5952 58.8169 67.0568 56.6346 67.7145C54.3795 68.3723 52.1972 69.1031 49.9421 69.7608C47.978 70.3455 46.2322 73.5611 47.1051 75.3881C47.9053 76.9959 49.2874 76.192 50.2331 75.6074C52.6337 73.9996 54.9615 72.1725 57.2893 70.4916C59.6171 68.8108 61.9449 67.203 64.2727 65.5221C64.9274 65.0836 65.6548 65.0836 66.164 65.5952ZM50.7423 66.3991C50.9605 66.7645 50.8878 66.6914 51.106 67.0568C52.7064 66.6183 54.3795 66.2529 55.9799 65.5952C58.1622 64.7182 58.3804 63.7681 56.7801 61.3564C54.7432 63.0373 52.7791 64.7182 50.7423 66.3991Z" fill="#2ED6FB"/>
<path d="M89.442 75.0955C94.6796 71.7338 99.8444 68.299 105.082 64.9372C105.3 65.0834 105.518 65.2295 105.737 65.3026C105.373 66.1065 105.3 67.2758 104.646 67.7143C99.9171 71.2222 95.116 74.7301 90.2422 78.0188C88.2781 79.3343 86.314 78.3842 85.9503 76.0456C85.7321 74.8763 85.8048 73.3416 86.3868 72.3915C88.5691 68.7374 90.9696 65.1564 93.2974 61.5754C94.4613 59.8215 95.989 59.383 98.0258 60.6985C93.8794 64.718 90.6059 69.1759 88.6418 74.4378C89.0056 74.7301 89.2238 74.8763 89.442 75.0955Z" fill="#2ED6FB"/>
<path d="M104.646 46.5208C105.737 47.0323 105.955 48.4209 105.155 49.3709C103.482 51.3441 101.954 53.2443 100.354 55.1444C99.5535 56.0945 98.826 55.656 98.7533 54.7059C98.6805 53.7558 98.826 52.7327 99.2625 51.8557C99.9172 50.5402 100.863 49.2979 101.736 48.1285C102.754 46.5938 103.773 46.1553 104.646 46.5208Z" fill="#2ED6FB"/>
</svg>
